<mxfile host="65bd71144e">
    <diagram id="ldlrYBbxjGCwVf6nUzbh" name="Page-1">
        <mxGraphModel dx="1857" dy="1443" grid="1" gridSize="10" guides="1" tooltips="1" connect="1" arrows="1" fold="1" page="1" pageScale="1" pageWidth="2339" pageHeight="3300" math="0" shadow="0">
            <root>
                <mxCell id="0"/>
                <mxCell id="1" parent="0"/>
                <mxCell id="2" value="&lt;b&gt;&lt;font style=&quot;font-size: 28px;&quot;&gt;JavaScript&lt;/font&gt;&lt;/b&gt;" style="rounded=0;whiteSpace=wrap;html=1;" parent="1" vertex="1">
                    <mxGeometry x="1080" y="1603" width="180" height="95" as="geometry"/>
                </mxCell>
                <mxCell id="3" value="&lt;font style=&quot;font-size: 20px;&quot;&gt;Function&lt;/font&gt;" style="rhombus;whiteSpace=wrap;html=1;fontSize=15;" parent="1" vertex="1">
                    <mxGeometry x="1030" y="195" width="180" height="130" as="geometry"/>
                </mxCell>
                <mxCell id="5" value="" style="endArrow=classic;html=1;fontSize=14;exitX=0.5;exitY=0;exitDx=0;exitDy=0;entryX=0.5;entryY=1;entryDx=0;entryDy=0;strokeWidth=1;" parent="1" source="2" target="3" edge="1">
                    <mxGeometry width="50" height="50" relative="1" as="geometry">
                        <mxPoint x="1085" y="1695" as="sourcePoint"/>
                        <mxPoint x="1135" y="1645" as="targetPoint"/>
                    </mxGeometry>
                </mxCell>
                <mxCell id="6" value="&lt;font style=&quot;font-size: 20px;&quot;&gt;String&lt;/font&gt;" style="rhombus;whiteSpace=wrap;html=1;fontSize=14;" parent="1" vertex="1">
                    <mxGeometry x="345" y="200" width="202.5" height="130" as="geometry"/>
                </mxCell>
                <mxCell id="7" value="" style="endArrow=classic;html=1;fontSize=14;exitX=0;exitY=0;exitDx=0;exitDy=0;entryX=1;entryY=0.5;entryDx=0;entryDy=0;" parent="1" source="2" target="6" edge="1">
                    <mxGeometry width="50" height="50" relative="1" as="geometry">
                        <mxPoint x="1090" y="1640" as="sourcePoint"/>
                        <mxPoint x="521" y="294" as="targetPoint"/>
                    </mxGeometry>
                </mxCell>
                <mxCell id="8" value="&lt;font style=&quot;font-size: 20px;&quot;&gt;Number&lt;/font&gt;" style="rhombus;whiteSpace=wrap;html=1;fontSize=14;" parent="1" vertex="1">
                    <mxGeometry x="695" y="180" width="195" height="140" as="geometry"/>
                </mxCell>
                <mxCell id="9" value="" style="endArrow=classic;html=1;fontSize=14;entryX=0.5;entryY=1;entryDx=0;entryDy=0;exitX=0.25;exitY=0;exitDx=0;exitDy=0;" parent="1" source="2" target="8" edge="1">
                    <mxGeometry width="50" height="50" relative="1" as="geometry">
                        <mxPoint x="1155" y="1805" as="sourcePoint"/>
                        <mxPoint x="1215" y="1845" as="targetPoint"/>
                    </mxGeometry>
                </mxCell>
                <mxCell id="12" value="&lt;font style=&quot;font-size: 20px;&quot;&gt;Array&lt;/font&gt;" style="rhombus;whiteSpace=wrap;html=1;fontSize=14;direction=east;" parent="1" vertex="1">
                    <mxGeometry x="445" y="670" width="202.5" height="200" as="geometry"/>
                </mxCell>
                <mxCell id="13" value="" style="endArrow=classic;html=1;fontSize=14;exitX=0;exitY=0.75;exitDx=0;exitDy=0;entryX=1;entryY=0.5;entryDx=0;entryDy=0;" parent="1" source="2" edge="1" target="12">
                    <mxGeometry width="50" height="50" relative="1" as="geometry">
                        <mxPoint x="1205" y="1885" as="sourcePoint"/>
                        <mxPoint x="640" y="810" as="targetPoint"/>
                    </mxGeometry>
                </mxCell>
                <mxCell id="14" value="&lt;font style=&quot;font-size: 20px;&quot;&gt;Object&lt;/font&gt;" style="rhombus;whiteSpace=wrap;html=1;fontSize=14;" parent="1" vertex="1">
                    <mxGeometry x="360" y="1380" width="235" height="165" as="geometry"/>
                </mxCell>
                <mxCell id="15" value="" style="endArrow=classic;html=1;fontSize=14;exitX=0;exitY=1;exitDx=0;exitDy=0;entryX=1;entryY=0.5;entryDx=0;entryDy=0;" parent="1" source="2" target="14" edge="1">
                    <mxGeometry width="50" height="50" relative="1" as="geometry">
                        <mxPoint x="1155" y="1785" as="sourcePoint"/>
                        <mxPoint x="1255" y="1835" as="targetPoint"/>
                    </mxGeometry>
                </mxCell>
                <mxCell id="17" value="&lt;font style=&quot;font-size: 20px;&quot;&gt;Callback&lt;/font&gt;" style="rhombus;whiteSpace=wrap;html=1;fontSize=14;" parent="1" vertex="1">
                    <mxGeometry x="1325" y="185" width="170" height="145" as="geometry"/>
                </mxCell>
                <mxCell id="19" value="&lt;font style=&quot;font-size: 20px;&quot;&gt;DOM&lt;/font&gt;" style="rhombus;whiteSpace=wrap;html=1;fontSize=14;" parent="1" vertex="1">
                    <mxGeometry x="780" y="2635" width="200" height="130" as="geometry"/>
                </mxCell>
                <mxCell id="20" value="" style="endArrow=classic;html=1;fontSize=14;entryX=0.5;entryY=0;entryDx=0;entryDy=0;exitX=0.25;exitY=1;exitDx=0;exitDy=0;" parent="1" source="2" target="19" edge="1">
                    <mxGeometry width="50" height="50" relative="1" as="geometry">
                        <mxPoint x="1205" y="1865" as="sourcePoint"/>
                        <mxPoint x="1235" y="1835" as="targetPoint"/>
                    </mxGeometry>
                </mxCell>
                <mxCell id="21" value="&lt;font style=&quot;font-size: 20px;&quot;&gt;JSON&lt;/font&gt;" style="rhombus;whiteSpace=wrap;html=1;fontSize=14;" parent="1" vertex="1">
                    <mxGeometry x="790" y="1790" width="210" height="140" as="geometry"/>
                </mxCell>
                <mxCell id="22" value="&lt;font style=&quot;font-size: 20px;&quot;&gt;fetch&lt;/font&gt;" style="rhombus;whiteSpace=wrap;html=1;fontSize=14;" parent="1" vertex="1">
                    <mxGeometry x="1560" y="1758" width="160" height="118" as="geometry"/>
                </mxCell>
                <mxCell id="23" value="" style="endArrow=classic;html=1;fontSize=14;exitX=0.25;exitY=1;exitDx=0;exitDy=0;entryX=0.5;entryY=0;entryDx=0;entryDy=0;" parent="1" source="2" target="21" edge="1">
                    <mxGeometry width="50" height="50" relative="1" as="geometry">
                        <mxPoint x="1185" y="1745" as="sourcePoint"/>
                        <mxPoint x="1235" y="1695" as="targetPoint"/>
                    </mxGeometry>
                </mxCell>
                <mxCell id="24" value="" style="endArrow=classic;html=1;fontSize=14;exitX=1;exitY=1;exitDx=0;exitDy=0;entryX=0;entryY=0.5;entryDx=0;entryDy=0;" parent="1" source="2" target="22" edge="1">
                    <mxGeometry width="50" height="50" relative="1" as="geometry">
                        <mxPoint x="1345" y="1765" as="sourcePoint"/>
                        <mxPoint x="1395" y="1715" as="targetPoint"/>
                    </mxGeometry>
                </mxCell>
                <mxCell id="25" value="length" style="ellipse;whiteSpace=wrap;html=1;fontSize=14;" parent="1" vertex="1">
                    <mxGeometry x="350" y="50" width="80" height="60" as="geometry"/>
                </mxCell>
                <mxCell id="27" value="indexOf" style="ellipse;whiteSpace=wrap;html=1;fontSize=14;" parent="1" vertex="1">
                    <mxGeometry x="450" y="40" width="80" height="60" as="geometry"/>
                </mxCell>
                <mxCell id="29" value="slice" style="ellipse;whiteSpace=wrap;html=1;fontSize=14;" parent="1" vertex="1">
                    <mxGeometry x="170" y="60" width="80" height="60" as="geometry"/>
                </mxCell>
                <mxCell id="30" value="replace" style="ellipse;whiteSpace=wrap;html=1;fontSize=14;" parent="1" vertex="1">
                    <mxGeometry x="90" y="90" width="80" height="60" as="geometry"/>
                </mxCell>
                <mxCell id="34" value="" style="endArrow=none;dashed=1;html=1;fontSize=14;entryX=0.5;entryY=1;entryDx=0;entryDy=0;startArrow=none;exitX=0;exitY=0.5;exitDx=0;exitDy=0;" parent="1" source="6" target="27" edge="1">
                    <mxGeometry width="50" height="50" relative="1" as="geometry">
                        <mxPoint x="465" y="335" as="sourcePoint"/>
                        <mxPoint x="445" y="275" as="targetPoint"/>
                    </mxGeometry>
                </mxCell>
                <mxCell id="35" value="toUpperCase" style="ellipse;whiteSpace=wrap;html=1;fontSize=14;" parent="1" vertex="1">
                    <mxGeometry x="40" y="160" width="110" height="60" as="geometry"/>
                </mxCell>
                <mxCell id="36" value="" style="endArrow=none;dashed=1;html=1;dashPattern=1 3;strokeWidth=2;fontSize=14;entryX=1;entryY=1;entryDx=0;entryDy=0;exitX=0;exitY=0.5;exitDx=0;exitDy=0;" parent="1" source="6" target="29" edge="1">
                    <mxGeometry width="50" height="50" relative="1" as="geometry">
                        <mxPoint x="295" y="305" as="sourcePoint"/>
                        <mxPoint x="345" y="255" as="targetPoint"/>
                    </mxGeometry>
                </mxCell>
                <mxCell id="37" value="" style="endArrow=none;dashed=1;html=1;dashPattern=1 3;strokeWidth=2;fontSize=14;entryX=1;entryY=0.5;entryDx=0;entryDy=0;exitX=0;exitY=0.5;exitDx=0;exitDy=0;" parent="1" source="6" target="30" edge="1">
                    <mxGeometry width="50" height="50" relative="1" as="geometry">
                        <mxPoint x="315" y="385" as="sourcePoint"/>
                        <mxPoint x="365" y="335" as="targetPoint"/>
                    </mxGeometry>
                </mxCell>
                <mxCell id="38" value="" style="endArrow=none;dashed=1;html=1;dashPattern=1 3;strokeWidth=2;fontSize=14;entryX=1;entryY=0.5;entryDx=0;entryDy=0;startArrow=none;exitX=0;exitY=0.5;exitDx=0;exitDy=0;" parent="1" source="6" target="35" edge="1">
                    <mxGeometry width="50" height="50" relative="1" as="geometry">
                        <mxPoint x="500" y="350" as="sourcePoint"/>
                        <mxPoint x="365" y="375" as="targetPoint"/>
                    </mxGeometry>
                </mxCell>
                <mxCell id="39" value="" style="endArrow=none;dashed=1;html=1;dashPattern=1 3;strokeWidth=2;fontSize=14;entryX=1;entryY=1;entryDx=0;entryDy=0;exitX=0;exitY=0.5;exitDx=0;exitDy=0;" parent="1" source="6" target="25" edge="1">
                    <mxGeometry width="50" height="50" relative="1" as="geometry">
                        <mxPoint x="375" y="345" as="sourcePoint"/>
                        <mxPoint x="385" y="255" as="targetPoint"/>
                    </mxGeometry>
                </mxCell>
                <mxCell id="40" value="toLowerCase" style="ellipse;whiteSpace=wrap;html=1;fontSize=14;" parent="1" vertex="1">
                    <mxGeometry x="60" y="230" width="110" height="60" as="geometry"/>
                </mxCell>
                <mxCell id="41" value="" style="endArrow=none;dashed=1;html=1;dashPattern=1 3;strokeWidth=2;fontSize=14;entryX=0;entryY=0.5;entryDx=0;entryDy=0;exitX=1;exitY=0.5;exitDx=0;exitDy=0;" parent="1" source="40" target="6" edge="1">
                    <mxGeometry width="50" height="50" relative="1" as="geometry">
                        <mxPoint x="335" y="455" as="sourcePoint"/>
                        <mxPoint x="385" y="405" as="targetPoint"/>
                    </mxGeometry>
                </mxCell>
                <mxCell id="42" value="charAt" style="ellipse;whiteSpace=wrap;html=1;fontSize=14;" parent="1" vertex="1">
                    <mxGeometry x="260" y="50" width="80" height="60" as="geometry"/>
                </mxCell>
                <mxCell id="44" value="" style="endArrow=none;dashed=1;html=1;dashPattern=1 3;strokeWidth=2;fontSize=14;entryX=1;entryY=0.5;entryDx=0;entryDy=0;exitX=0;exitY=0.5;exitDx=0;exitDy=0;" parent="1" source="6" target="43" edge="1">
                    <mxGeometry width="50" height="50" relative="1" as="geometry">
                        <mxPoint x="465" y="345" as="sourcePoint"/>
                        <mxPoint x="275" y="365" as="targetPoint"/>
                    </mxGeometry>
                </mxCell>
                <mxCell id="43" value="trim" style="ellipse;whiteSpace=wrap;html=1;fontSize=14;" parent="1" vertex="1">
                    <mxGeometry x="90" y="320" width="80" height="60" as="geometry"/>
                </mxCell>
                <mxCell id="45" value="split" style="ellipse;whiteSpace=wrap;html=1;fontSize=14;" parent="1" vertex="1">
                    <mxGeometry x="117.5" y="410" width="80" height="60" as="geometry"/>
                </mxCell>
                <mxCell id="47" value="" style="endArrow=none;dashed=1;html=1;fontSize=14;entryX=1;entryY=1;entryDx=0;entryDy=0;exitX=0;exitY=0.5;exitDx=0;exitDy=0;" parent="1" source="6" target="42" edge="1">
                    <mxGeometry width="50" height="50" relative="1" as="geometry">
                        <mxPoint x="465" y="345" as="sourcePoint"/>
                        <mxPoint x="425" y="295" as="targetPoint"/>
                    </mxGeometry>
                </mxCell>
                <mxCell id="48" value="" style="endArrow=none;dashed=1;html=1;dashPattern=1 3;strokeWidth=2;fontSize=14;entryX=0;entryY=0.5;entryDx=0;entryDy=0;exitX=1;exitY=0.5;exitDx=0;exitDy=0;" parent="1" source="43" target="6" edge="1">
                    <mxGeometry width="50" height="50" relative="1" as="geometry">
                        <mxPoint x="405" y="415" as="sourcePoint"/>
                        <mxPoint x="455" y="365" as="targetPoint"/>
                    </mxGeometry>
                </mxCell>
                <mxCell id="49" value="" style="endArrow=none;dashed=1;html=1;dashPattern=1 3;strokeWidth=2;fontSize=14;exitX=1;exitY=0;exitDx=0;exitDy=0;entryX=0;entryY=0.5;entryDx=0;entryDy=0;" parent="1" source="45" target="6" edge="1">
                    <mxGeometry width="50" height="50" relative="1" as="geometry">
                        <mxPoint x="198.28427124746213" y="418.7867965644032" as="sourcePoint"/>
                        <mxPoint x="475" y="365" as="targetPoint"/>
                    </mxGeometry>
                </mxCell>
                <mxCell id="59" value="toString" style="ellipse;whiteSpace=wrap;html=1;fontSize=14;" parent="1" vertex="1">
                    <mxGeometry x="182.5" y="510" width="80" height="60" as="geometry"/>
                </mxCell>
                <mxCell id="60" value="join" style="ellipse;whiteSpace=wrap;html=1;fontSize=14;" parent="1" vertex="1">
                    <mxGeometry x="90" y="550" width="80" height="60" as="geometry"/>
                </mxCell>
                <mxCell id="61" value="pop" style="ellipse;whiteSpace=wrap;html=1;fontSize=14;" parent="1" vertex="1">
                    <mxGeometry x="37.5" y="630" width="80" height="60" as="geometry"/>
                </mxCell>
                <mxCell id="62" value="push" style="ellipse;whiteSpace=wrap;html=1;fontSize=14;" parent="1" vertex="1">
                    <mxGeometry x="32.5" y="720" width="80" height="60" as="geometry"/>
                </mxCell>
                <mxCell id="63" value="shift" style="ellipse;whiteSpace=wrap;html=1;fontSize=14;" parent="1" vertex="1">
                    <mxGeometry x="37.5" y="800" width="80" height="60" as="geometry"/>
                </mxCell>
                <mxCell id="64" value="unshift" style="ellipse;whiteSpace=wrap;html=1;fontSize=14;" parent="1" vertex="1">
                    <mxGeometry x="20" y="870" width="80" height="60" as="geometry"/>
                </mxCell>
                <mxCell id="65" value="splice" style="ellipse;whiteSpace=wrap;html=1;fontSize=14;" parent="1" vertex="1">
                    <mxGeometry x="20" y="960" width="80" height="60" as="geometry"/>
                </mxCell>
                <mxCell id="66" value="concat" style="ellipse;whiteSpace=wrap;html=1;fontSize=14;" parent="1" vertex="1">
                    <mxGeometry x="32.5" y="1050" width="80" height="60" as="geometry"/>
                </mxCell>
                <mxCell id="67" value="" style="endArrow=none;dashed=1;html=1;dashPattern=1 3;strokeWidth=2;fontSize=20;exitX=1;exitY=0.5;exitDx=0;exitDy=0;entryX=0;entryY=0.5;entryDx=0;entryDy=0;" parent="1" source="59" target="12" edge="1">
                    <mxGeometry width="50" height="50" relative="1" as="geometry">
                        <mxPoint x="235" y="700" as="sourcePoint"/>
                        <mxPoint x="285" y="650" as="targetPoint"/>
                    </mxGeometry>
                </mxCell>
                <mxCell id="68" value="" style="endArrow=none;dashed=1;html=1;dashPattern=1 3;strokeWidth=2;fontSize=20;exitX=1.031;exitY=0.289;exitDx=0;exitDy=0;exitPerimeter=0;entryX=0;entryY=0.5;entryDx=0;entryDy=0;" parent="1" source="60" target="12" edge="1">
                    <mxGeometry width="50" height="50" relative="1" as="geometry">
                        <mxPoint x="265" y="760" as="sourcePoint"/>
                        <mxPoint x="575" y="750" as="targetPoint"/>
                    </mxGeometry>
                </mxCell>
                <mxCell id="69" value="" style="endArrow=none;dashed=1;html=1;dashPattern=1 3;strokeWidth=2;fontSize=20;exitX=1;exitY=0;exitDx=0;exitDy=0;entryX=0;entryY=0.5;entryDx=0;entryDy=0;" parent="1" source="61" target="12" edge="1">
                    <mxGeometry width="50" height="50" relative="1" as="geometry">
                        <mxPoint x="197.48000000000002" y="767.3400000000001" as="sourcePoint"/>
                        <mxPoint x="522.5" y="715" as="targetPoint"/>
                    </mxGeometry>
                </mxCell>
                <mxCell id="70" value="" style="endArrow=none;dashed=1;html=1;dashPattern=1 3;strokeWidth=2;fontSize=20;exitX=1;exitY=0;exitDx=0;exitDy=0;entryX=0;entryY=0.5;entryDx=0;entryDy=0;" parent="1" source="62" target="12" edge="1">
                    <mxGeometry width="50" height="50" relative="1" as="geometry">
                        <mxPoint x="213.6491835257964" y="839.0640581926878" as="sourcePoint"/>
                        <mxPoint x="522.5" y="715" as="targetPoint"/>
                    </mxGeometry>
                </mxCell>
                <mxCell id="71" value="" style="endArrow=none;dashed=1;html=1;dashPattern=1 3;strokeWidth=2;fontSize=20;exitX=1;exitY=0;exitDx=0;exitDy=0;entryX=0;entryY=0.5;entryDx=0;entryDy=0;" parent="1" source="63" target="12" edge="1">
                    <mxGeometry width="50" height="50" relative="1" as="geometry">
                        <mxPoint x="263.6491835257964" y="909.0640581926878" as="sourcePoint"/>
                        <mxPoint x="515" y="700" as="targetPoint"/>
                    </mxGeometry>
                </mxCell>
                <mxCell id="73" value="" style="endArrow=none;dashed=1;html=1;dashPattern=1 3;strokeWidth=2;fontSize=20;exitX=1.015;exitY=0.244;exitDx=0;exitDy=0;exitPerimeter=0;entryX=0;entryY=0.5;entryDx=0;entryDy=0;" parent="1" source="64" target="12" edge="1">
                    <mxGeometry width="50" height="50" relative="1" as="geometry">
                        <mxPoint x="333.64918352579184" y="969.0640581926914" as="sourcePoint"/>
                        <mxPoint x="465" y="750" as="targetPoint"/>
                    </mxGeometry>
                </mxCell>
                <mxCell id="74" value="" style="endArrow=none;dashed=1;html=1;dashPattern=1 3;strokeWidth=2;fontSize=20;exitX=1.004;exitY=0.281;exitDx=0;exitDy=0;entryX=0;entryY=0.5;entryDx=0;entryDy=0;exitPerimeter=0;" parent="1" source="65" target="12" edge="1">
                    <mxGeometry width="50" height="50" relative="1" as="geometry">
                        <mxPoint x="398.52" y="1008.3800000000001" as="sourcePoint"/>
                        <mxPoint x="465" y="743" as="targetPoint"/>
                    </mxGeometry>
                </mxCell>
                <mxCell id="75" value="" style="endArrow=none;dashed=1;html=1;dashPattern=1 3;strokeWidth=2;fontSize=20;exitX=1;exitY=0;exitDx=0;exitDy=0;entryX=0;entryY=0.5;entryDx=0;entryDy=0;" parent="1" source="66" target="12" edge="1">
                    <mxGeometry width="50" height="50" relative="1" as="geometry">
                        <mxPoint x="480" y="1050" as="sourcePoint"/>
                        <mxPoint x="537.5000000000002" y="705" as="targetPoint"/>
                    </mxGeometry>
                </mxCell>
                <mxCell id="78" value="object contructor" style="ellipse;whiteSpace=wrap;html=1;fontSize=14;" parent="1" vertex="1">
                    <mxGeometry x="52.5" y="1350" width="130" height="60" as="geometry"/>
                </mxCell>
                <mxCell id="79" value="object prototype" style="ellipse;whiteSpace=wrap;html=1;fontSize=14;" parent="1" vertex="1">
                    <mxGeometry x="65" y="1470" width="130" height="60" as="geometry"/>
                </mxCell>
                <mxCell id="80" value="" style="endArrow=none;dashed=1;html=1;dashPattern=1 3;strokeWidth=2;fontSize=20;exitX=1;exitY=1;exitDx=0;exitDy=0;entryX=0;entryY=0.5;entryDx=0;entryDy=0;" parent="1" source="78" target="14" edge="1">
                    <mxGeometry width="50" height="50" relative="1" as="geometry">
                        <mxPoint x="560" y="1720" as="sourcePoint"/>
                        <mxPoint x="610" y="1670" as="targetPoint"/>
                    </mxGeometry>
                </mxCell>
                <mxCell id="81" value="" style="endArrow=none;dashed=1;html=1;dashPattern=1 3;strokeWidth=2;fontSize=20;exitX=1;exitY=0.5;exitDx=0;exitDy=0;entryX=0;entryY=0.5;entryDx=0;entryDy=0;" parent="1" source="79" target="14" edge="1">
                    <mxGeometry width="50" height="50" relative="1" as="geometry">
                        <mxPoint x="555.6000000000001" y="2058.74" as="sourcePoint"/>
                        <mxPoint x="666.25" y="1923.75" as="targetPoint"/>
                        <Array as="points"/>
                    </mxGeometry>
                </mxCell>
                <mxCell id="84" value="toString" style="ellipse;whiteSpace=wrap;html=1;fontSize=14;" parent="1" vertex="1">
                    <mxGeometry x="830" y="30" width="80" height="60" as="geometry"/>
                </mxCell>
                <mxCell id="85" value="toFixed" style="ellipse;whiteSpace=wrap;html=1;fontSize=14;" parent="1" vertex="1">
                    <mxGeometry x="720" y="40" width="80" height="60" as="geometry"/>
                </mxCell>
                <mxCell id="86" value="isNaN" style="ellipse;whiteSpace=wrap;html=1;fontSize=14;" parent="1" vertex="1">
                    <mxGeometry x="595" y="50" width="80" height="60" as="geometry"/>
                </mxCell>
                <mxCell id="87" value="" style="endArrow=none;dashed=1;html=1;dashPattern=1 3;strokeWidth=2;fontSize=20;exitX=0.5;exitY=1;exitDx=0;exitDy=0;entryX=0.5;entryY=0;entryDx=0;entryDy=0;" parent="1" source="84" target="8" edge="1">
                    <mxGeometry width="50" height="50" relative="1" as="geometry">
                        <mxPoint x="912.5" y="230" as="sourcePoint"/>
                        <mxPoint x="962.5" y="180" as="targetPoint"/>
                    </mxGeometry>
                </mxCell>
                <mxCell id="88" value="" style="endArrow=none;dashed=1;html=1;dashPattern=1 3;strokeWidth=2;fontSize=20;entryX=0.5;entryY=0;entryDx=0;entryDy=0;" parent="1" source="85" target="8" edge="1">
                    <mxGeometry width="50" height="50" relative="1" as="geometry">
                        <mxPoint x="795" y="140" as="sourcePoint"/>
                        <mxPoint x="985" y="232.5" as="targetPoint"/>
                    </mxGeometry>
                </mxCell>
                <mxCell id="89" value="" style="endArrow=none;dashed=1;html=1;dashPattern=1 3;strokeWidth=2;fontSize=20;exitX=0.791;exitY=0.903;exitDx=0;exitDy=0;entryX=0.5;entryY=0;entryDx=0;entryDy=0;exitPerimeter=0;" parent="1" source="86" target="8" edge="1">
                    <mxGeometry width="50" height="50" relative="1" as="geometry">
                        <mxPoint x="785" y="232.5" as="sourcePoint"/>
                        <mxPoint x="985" y="232.5" as="targetPoint"/>
                    </mxGeometry>
                </mxCell>
                <mxCell id="90" value="isArray" style="ellipse;whiteSpace=wrap;html=1;fontSize=14;" parent="1" vertex="1">
                    <mxGeometry x="297.5" y="500" width="80" height="60" as="geometry"/>
                </mxCell>
                <mxCell id="91" value="" style="endArrow=none;dashed=1;html=1;dashPattern=1 3;strokeWidth=2;fontSize=20;exitX=1;exitY=1;exitDx=0;exitDy=0;entryX=0;entryY=0.5;entryDx=0;entryDy=0;" parent="1" source="90" target="12" edge="1">
                    <mxGeometry width="50" height="50" relative="1" as="geometry">
                        <mxPoint x="217.5" y="640" as="sourcePoint"/>
                        <mxPoint x="485" y="770" as="targetPoint"/>
                    </mxGeometry>
                </mxCell>
                <mxCell id="92" value="length" style="ellipse;whiteSpace=wrap;html=1;fontSize=14;" parent="1" vertex="1">
                    <mxGeometry x="420" y="510" width="80" height="60" as="geometry"/>
                </mxCell>
                <mxCell id="93" value="" style="endArrow=none;dashed=1;html=1;dashPattern=1 3;strokeWidth=2;fontSize=20;exitX=1;exitY=1;exitDx=0;exitDy=0;entryX=0;entryY=0.5;entryDx=0;entryDy=0;" parent="1" source="92" target="12" edge="1">
                    <mxGeometry width="50" height="50" relative="1" as="geometry">
                        <mxPoint x="276.0629135657832" y="621.0021423277817" as="sourcePoint"/>
                        <mxPoint x="465" y="752.4999999999998" as="targetPoint"/>
                    </mxGeometry>
                </mxCell>
                <mxCell id="94" value="map()" style="ellipse;whiteSpace=wrap;html=1;fontSize=14;" parent="1" vertex="1">
                    <mxGeometry x="90" y="1100" width="80" height="60" as="geometry"/>
                </mxCell>
                <mxCell id="96" value="reduce()" style="ellipse;whiteSpace=wrap;html=1;fontSize=14;" parent="1" vertex="1">
                    <mxGeometry x="170" y="1160" width="80" height="60" as="geometry"/>
                </mxCell>
                <mxCell id="97" value="includes" style="ellipse;whiteSpace=wrap;html=1;fontSize=14;" parent="1" vertex="1">
                    <mxGeometry x="230" y="1200" width="80" height="60" as="geometry"/>
                </mxCell>
                <mxCell id="100" value="forEach()" style="ellipse;whiteSpace=wrap;html=1;fontSize=14;" parent="1" vertex="1">
                    <mxGeometry x="310" y="1230" width="80" height="60" as="geometry"/>
                </mxCell>
                <mxCell id="101" value="every()" style="ellipse;whiteSpace=wrap;html=1;fontSize=14;" parent="1" vertex="1">
                    <mxGeometry x="397.5" y="1220" width="80" height="60" as="geometry"/>
                </mxCell>
                <mxCell id="102" value="some()" style="ellipse;whiteSpace=wrap;html=1;fontSize=14;" parent="1" vertex="1">
                    <mxGeometry x="490" y="1210" width="80" height="60" as="geometry"/>
                </mxCell>
                <mxCell id="103" value="find()" style="ellipse;whiteSpace=wrap;html=1;fontSize=14;" parent="1" vertex="1">
                    <mxGeometry x="550" y="1150" width="80" height="60" as="geometry"/>
                </mxCell>
                <mxCell id="104" value="filter()" style="ellipse;whiteSpace=wrap;html=1;fontSize=14;" parent="1" vertex="1">
                    <mxGeometry x="615" y="1100" width="80" height="60" as="geometry"/>
                </mxCell>
                <mxCell id="105" value="" style="endArrow=none;dashed=1;html=1;dashPattern=1 3;strokeWidth=2;fontSize=20;exitX=1;exitY=0;exitDx=0;exitDy=0;entryX=0;entryY=0.5;entryDx=0;entryDy=0;" parent="1" source="94" target="12" edge="1">
                    <mxGeometry width="50" height="50" relative="1" as="geometry">
                        <mxPoint x="135.7842712474619" y="1098.7867965644036" as="sourcePoint"/>
                        <mxPoint x="560" y="902.5" as="targetPoint"/>
                    </mxGeometry>
                </mxCell>
                <mxCell id="106" value="" style="endArrow=none;dashed=1;html=1;dashPattern=1 3;strokeWidth=2;fontSize=20;exitX=1;exitY=0;exitDx=0;exitDy=0;entryX=0;entryY=0.5;entryDx=0;entryDy=0;" parent="1" source="96" target="12" edge="1">
                    <mxGeometry width="50" height="50" relative="1" as="geometry">
                        <mxPoint x="160.7842712474619" y="1178.7867965644036" as="sourcePoint"/>
                        <mxPoint x="560" y="902.5" as="targetPoint"/>
                    </mxGeometry>
                </mxCell>
                <mxCell id="107" value="" style="endArrow=none;dashed=1;html=1;dashPattern=1 3;strokeWidth=2;fontSize=20;exitX=0.5;exitY=0;exitDx=0;exitDy=0;entryX=0;entryY=0.5;entryDx=0;entryDy=0;" parent="1" source="97" target="12" edge="1">
                    <mxGeometry width="50" height="50" relative="1" as="geometry">
                        <mxPoint x="195.7842712474619" y="1258.7867965644036" as="sourcePoint"/>
                        <mxPoint x="560" y="902.5" as="targetPoint"/>
                    </mxGeometry>
                </mxCell>
                <mxCell id="109" value="" style="endArrow=none;dashed=1;html=1;dashPattern=1 3;strokeWidth=2;fontSize=20;exitX=0.5;exitY=0;exitDx=0;exitDy=0;entryX=0;entryY=0.5;entryDx=0;entryDy=0;" parent="1" source="100" target="12" edge="1">
                    <mxGeometry width="50" height="50" relative="1" as="geometry">
                        <mxPoint x="227.5" y="1320" as="sourcePoint"/>
                        <mxPoint x="555" y="992.5" as="targetPoint"/>
                    </mxGeometry>
                </mxCell>
                <mxCell id="110" value="" style="endArrow=none;dashed=1;html=1;dashPattern=1 3;strokeWidth=2;fontSize=20;exitX=0.5;exitY=0;exitDx=0;exitDy=0;entryX=0;entryY=0.5;entryDx=0;entryDy=0;" parent="1" source="101" target="12" edge="1">
                    <mxGeometry width="50" height="50" relative="1" as="geometry">
                        <mxPoint x="312.5" y="1380" as="sourcePoint"/>
                        <mxPoint x="555" y="992.5" as="targetPoint"/>
                    </mxGeometry>
                </mxCell>
                <mxCell id="111" value="" style="endArrow=none;dashed=1;html=1;dashPattern=1 3;strokeWidth=2;fontSize=20;exitX=0.5;exitY=0;exitDx=0;exitDy=0;entryX=0;entryY=0.5;entryDx=0;entryDy=0;" parent="1" source="102" target="12" edge="1">
                    <mxGeometry width="50" height="50" relative="1" as="geometry">
                        <mxPoint x="400" y="1430" as="sourcePoint"/>
                        <mxPoint x="555" y="992.5" as="targetPoint"/>
                    </mxGeometry>
                </mxCell>
                <mxCell id="112" value="" style="endArrow=none;dashed=1;html=1;dashPattern=1 3;strokeWidth=2;fontSize=20;exitX=0.5;exitY=0;exitDx=0;exitDy=0;entryX=0;entryY=0.5;entryDx=0;entryDy=0;" parent="1" source="103" target="12" edge="1">
                    <mxGeometry width="50" height="50" relative="1" as="geometry">
                        <mxPoint x="515" y="1430" as="sourcePoint"/>
                        <mxPoint x="555" y="992.5" as="targetPoint"/>
                    </mxGeometry>
                </mxCell>
                <mxCell id="113" value="" style="endArrow=none;dashed=1;html=1;dashPattern=1 3;strokeWidth=2;fontSize=20;exitX=0.5;exitY=0;exitDx=0;exitDy=0;entryX=0;entryY=0.5;entryDx=0;entryDy=0;" parent="1" source="104" target="12" edge="1">
                    <mxGeometry width="50" height="50" relative="1" as="geometry">
                        <mxPoint x="615" y="1417.5" as="sourcePoint"/>
                        <mxPoint x="555" y="992.5" as="targetPoint"/>
                    </mxGeometry>
                </mxCell>
                <mxCell id="115" value="Declaration function" style="ellipse;whiteSpace=wrap;html=1;fontSize=14;" parent="1" vertex="1">
                    <mxGeometry x="980" y="30" width="160" height="60" as="geometry"/>
                </mxCell>
                <mxCell id="116" value="Expression function" style="ellipse;whiteSpace=wrap;html=1;fontSize=14;" parent="1" vertex="1">
                    <mxGeometry x="1180" y="30" width="160" height="60" as="geometry"/>
                </mxCell>
                <mxCell id="117" value="Arrow function" style="ellipse;whiteSpace=wrap;html=1;fontSize=14;" parent="1" vertex="1">
                    <mxGeometry x="1380" y="50" width="160" height="60" as="geometry"/>
                </mxCell>
                <mxCell id="119" value="" style="endArrow=none;dashed=1;html=1;dashPattern=1 3;strokeWidth=2;fontSize=20;entryX=0.5;entryY=1;entryDx=0;entryDy=0;exitX=0.5;exitY=0;exitDx=0;exitDy=0;" parent="1" source="3" target="115" edge="1">
                    <mxGeometry width="50" height="50" relative="1" as="geometry">
                        <mxPoint x="1250" y="300" as="sourcePoint"/>
                        <mxPoint x="1300" y="250" as="targetPoint"/>
                    </mxGeometry>
                </mxCell>
                <mxCell id="120" value="" style="endArrow=none;dashed=1;html=1;dashPattern=1 3;strokeWidth=2;fontSize=20;entryX=0.5;entryY=1;entryDx=0;entryDy=0;exitX=0.5;exitY=0;exitDx=0;exitDy=0;" parent="1" source="3" target="116" edge="1">
                    <mxGeometry width="50" height="50" relative="1" as="geometry">
                        <mxPoint x="1400" y="330" as="sourcePoint"/>
                        <mxPoint x="1220" y="200" as="targetPoint"/>
                    </mxGeometry>
                </mxCell>
                <mxCell id="121" value="" style="endArrow=none;dashed=1;html=1;dashPattern=1 3;strokeWidth=2;fontSize=20;entryX=0.5;entryY=1;entryDx=0;entryDy=0;exitX=0.5;exitY=0;exitDx=0;exitDy=0;" parent="1" source="3" target="117" edge="1">
                    <mxGeometry width="50" height="50" relative="1" as="geometry">
                        <mxPoint x="1410" y="340" as="sourcePoint"/>
                        <mxPoint x="1420" y="200" as="targetPoint"/>
                    </mxGeometry>
                </mxCell>
                <mxCell id="122" value="Math object" style="ellipse;whiteSpace=wrap;html=1;fontSize=14;" parent="1" vertex="1">
                    <mxGeometry x="325" y="1650" width="130" height="60" as="geometry"/>
                </mxCell>
                <mxCell id="126" value="Math.PI" style="ellipse;whiteSpace=wrap;html=1;fontSize=14;" parent="1" vertex="1">
                    <mxGeometry x="30" y="1610" width="130" height="60" as="geometry"/>
                </mxCell>
                <mxCell id="127" value="Math.round()" style="ellipse;whiteSpace=wrap;html=1;fontSize=14;" parent="1" vertex="1">
                    <mxGeometry x="48.75" y="1720" width="130" height="60" as="geometry"/>
                </mxCell>
                <mxCell id="128" value="Math.abs()" style="ellipse;whiteSpace=wrap;html=1;fontSize=14;" parent="1" vertex="1">
                    <mxGeometry x="90" y="1830" width="130" height="60" as="geometry"/>
                </mxCell>
                <mxCell id="129" value="Math.ceil()" style="ellipse;whiteSpace=wrap;html=1;fontSize=14;" parent="1" vertex="1">
                    <mxGeometry x="197.5" y="1920" width="130" height="60" as="geometry"/>
                </mxCell>
                <mxCell id="130" value="Math.floor()" style="ellipse;whiteSpace=wrap;html=1;fontSize=14;" parent="1" vertex="1">
                    <mxGeometry x="360" y="1930" width="130" height="60" as="geometry"/>
                </mxCell>
                <mxCell id="131" value="Math.random()" style="ellipse;whiteSpace=wrap;html=1;fontSize=14;" parent="1" vertex="1">
                    <mxGeometry x="525" y="1910" width="130" height="60" as="geometry"/>
                </mxCell>
                <mxCell id="132" value="Math.min()" style="ellipse;whiteSpace=wrap;html=1;fontSize=14;" parent="1" vertex="1">
                    <mxGeometry x="590" y="1800" width="130" height="60" as="geometry"/>
                </mxCell>
                <mxCell id="133" value="Math.max()" style="ellipse;whiteSpace=wrap;html=1;fontSize=14;" parent="1" vertex="1">
                    <mxGeometry x="610" y="1698" width="130" height="60" as="geometry"/>
                </mxCell>
                <mxCell id="134" value="" style="endArrow=none;html=1;fontSize=20;entryX=0.5;entryY=1;entryDx=0;entryDy=0;exitX=1;exitY=0.5;exitDx=0;exitDy=0;" parent="1" source="126" target="122" edge="1">
                    <mxGeometry width="50" height="50" relative="1" as="geometry">
                        <mxPoint x="190" y="1710" as="sourcePoint"/>
                        <mxPoint x="250" y="1650" as="targetPoint"/>
                    </mxGeometry>
                </mxCell>
                <mxCell id="135" value="" style="endArrow=none;html=1;fontSize=20;entryX=0.5;entryY=1;entryDx=0;entryDy=0;exitX=1;exitY=0;exitDx=0;exitDy=0;" parent="1" source="127" target="122" edge="1">
                    <mxGeometry width="50" height="50" relative="1" as="geometry">
                        <mxPoint x="130" y="1730" as="sourcePoint"/>
                        <mxPoint x="305" y="1680" as="targetPoint"/>
                    </mxGeometry>
                </mxCell>
                <mxCell id="136" value="" style="endArrow=none;html=1;fontSize=20;entryX=0.5;entryY=1;entryDx=0;entryDy=0;exitX=0.5;exitY=0;exitDx=0;exitDy=0;" parent="1" source="128" target="122" edge="1">
                    <mxGeometry width="50" height="50" relative="1" as="geometry">
                        <mxPoint x="193.46194077712562" y="1798.7867965644036" as="sourcePoint"/>
                        <mxPoint x="305" y="1680" as="targetPoint"/>
                    </mxGeometry>
                </mxCell>
                <mxCell id="137" value="" style="endArrow=none;html=1;fontSize=20;entryX=0.5;entryY=1;entryDx=0;entryDy=0;exitX=0.5;exitY=0;exitDx=0;exitDy=0;" parent="1" source="129" target="122" edge="1">
                    <mxGeometry width="50" height="50" relative="1" as="geometry">
                        <mxPoint x="240" y="1880" as="sourcePoint"/>
                        <mxPoint x="309.94000000000005" y="1680" as="targetPoint"/>
                    </mxGeometry>
                </mxCell>
                <mxCell id="138" value="" style="endArrow=none;html=1;fontSize=20;entryX=0.5;entryY=1;entryDx=0;entryDy=0;exitX=0.5;exitY=0;exitDx=0;exitDy=0;" parent="1" source="130" target="122" edge="1">
                    <mxGeometry width="50" height="50" relative="1" as="geometry">
                        <mxPoint x="355" y="1950" as="sourcePoint"/>
                        <mxPoint x="305" y="1680" as="targetPoint"/>
                    </mxGeometry>
                </mxCell>
                <mxCell id="139" value="" style="endArrow=none;dashed=1;html=1;dashPattern=1 3;strokeWidth=2;fontSize=20;entryX=0.5;entryY=1;entryDx=0;entryDy=0;exitX=0.5;exitY=0;exitDx=0;exitDy=0;" parent="1" source="122" target="14" edge="1">
                    <mxGeometry width="50" height="50" relative="1" as="geometry">
                        <mxPoint x="380" y="1660" as="sourcePoint"/>
                        <mxPoint x="430" y="1610" as="targetPoint"/>
                    </mxGeometry>
                </mxCell>
                <mxCell id="140" value="" style="endArrow=none;html=1;fontSize=20;entryX=0.5;entryY=1;entryDx=0;entryDy=0;exitX=0;exitY=0;exitDx=0;exitDy=0;" parent="1" source="131" target="122" edge="1">
                    <mxGeometry width="50" height="50" relative="1" as="geometry">
                        <mxPoint x="520" y="1940" as="sourcePoint"/>
                        <mxPoint x="305" y="1680" as="targetPoint"/>
                    </mxGeometry>
                </mxCell>
                <mxCell id="141" value="" style="endArrow=none;html=1;fontSize=20;entryX=0.5;entryY=1;entryDx=0;entryDy=0;exitX=0.028;exitY=0.346;exitDx=0;exitDy=0;exitPerimeter=0;" parent="1" source="132" target="122" edge="1">
                    <mxGeometry width="50" height="50" relative="1" as="geometry">
                        <mxPoint x="586.3781930575728" y="1878.8608384847212" as="sourcePoint"/>
                        <mxPoint x="305" y="1680" as="targetPoint"/>
                    </mxGeometry>
                </mxCell>
                <mxCell id="142" value="" style="endArrow=none;html=1;fontSize=20;entryX=0.5;entryY=1;entryDx=0;entryDy=0;exitX=0;exitY=0.5;exitDx=0;exitDy=0;" parent="1" source="133" target="122" edge="1">
                    <mxGeometry width="50" height="50" relative="1" as="geometry">
                        <mxPoint x="603.6400000000001" y="1800.7600000000002" as="sourcePoint"/>
                        <mxPoint x="370" y="1720" as="targetPoint"/>
                    </mxGeometry>
                </mxCell>
                <mxCell id="156" value="" style="endArrow=classic;startArrow=classic;html=1;fontSize=20;entryX=0;entryY=0.5;entryDx=0;entryDy=0;exitX=1;exitY=0.5;exitDx=0;exitDy=0;" parent="1" source="3" target="17" edge="1">
                    <mxGeometry width="50" height="50" relative="1" as="geometry">
                        <mxPoint x="1450" y="300" as="sourcePoint"/>
                        <mxPoint x="1560" y="370" as="targetPoint"/>
                    </mxGeometry>
                </mxCell>
                <mxCell id="160" value="&lt;font style=&quot;font-size: 14px;&quot;&gt;Element&lt;/font&gt;" style="ellipse;whiteSpace=wrap;html=1;" vertex="1" parent="1">
                    <mxGeometry x="420" y="2310" width="120" height="80" as="geometry"/>
                </mxCell>
                <mxCell id="161" value="&lt;font style=&quot;font-size: 14px;&quot;&gt;Attribute&lt;/font&gt;" style="ellipse;whiteSpace=wrap;html=1;" vertex="1" parent="1">
                    <mxGeometry x="400" y="2990" width="120" height="80" as="geometry"/>
                </mxCell>
                <mxCell id="162" value="&lt;font style=&quot;font-size: 14px;&quot;&gt;Text&lt;/font&gt;" style="ellipse;whiteSpace=wrap;html=1;" vertex="1" parent="1">
                    <mxGeometry x="610" y="3060" width="120" height="80" as="geometry"/>
                </mxCell>
                <mxCell id="163" value="" style="endArrow=none;dashed=1;html=1;dashPattern=1 3;strokeWidth=2;exitX=1;exitY=0.5;exitDx=0;exitDy=0;entryX=0;entryY=0.5;entryDx=0;entryDy=0;" edge="1" parent="1" source="160" target="19">
                    <mxGeometry width="50" height="50" relative="1" as="geometry">
                        <mxPoint x="500" y="2290" as="sourcePoint"/>
                        <mxPoint x="760" y="2450" as="targetPoint"/>
                    </mxGeometry>
                </mxCell>
                <mxCell id="164" value="&lt;div style=&quot;background-color: rgb(31, 31, 31); font-family: Consolas, &amp;quot;Courier New&amp;quot;, monospace; font-size: 14px; line-height: 19px;&quot;&gt;getElementById&lt;/div&gt;" style="ellipse;whiteSpace=wrap;html=1;strokeColor=#FFFFFF;" vertex="1" parent="1">
                    <mxGeometry x="330" y="2090" width="147.5" height="80" as="geometry"/>
                </mxCell>
                <mxCell id="165" value="&lt;div style=&quot;background-color: rgb(31, 31, 31); font-family: Consolas, &amp;quot;Courier New&amp;quot;, monospace; font-size: 14px; line-height: 19px;&quot;&gt;&lt;div style=&quot;line-height: 19px;&quot;&gt;&lt;font color=&quot;#ffffff&quot;&gt;getElementsByClassName&lt;/font&gt;&lt;/div&gt;&lt;/div&gt;" style="ellipse;whiteSpace=wrap;html=1;strokeColor=#FFFFFF;" vertex="1" parent="1">
                    <mxGeometry x="90" y="2140" width="198.75" height="80" as="geometry"/>
                </mxCell>
                <mxCell id="166" value="&lt;div style=&quot;background-color: rgb(31, 31, 31); font-family: Consolas, &amp;quot;Courier New&amp;quot;, monospace; font-size: 14px; line-height: 19px;&quot;&gt;&lt;div style=&quot;line-height: 19px;&quot;&gt;&lt;font color=&quot;#ffffff&quot;&gt;getElementsByTagName&lt;/font&gt;&lt;/div&gt;&lt;/div&gt;" style="ellipse;whiteSpace=wrap;html=1;strokeColor=#FFFFFF;" vertex="1" parent="1">
                    <mxGeometry x="20" y="2250" width="180" height="80" as="geometry"/>
                </mxCell>
                <mxCell id="167" value="&lt;div style=&quot;background-color: rgb(31, 31, 31); font-family: Consolas, &amp;quot;Courier New&amp;quot;, monospace; font-size: 14px; line-height: 19px;&quot;&gt;&lt;div style=&quot;line-height: 19px;&quot;&gt;&lt;font color=&quot;#ffffff&quot;&gt;querySelector&lt;/font&gt;&lt;/div&gt;&lt;/div&gt;" style="ellipse;whiteSpace=wrap;html=1;strokeColor=#FFFFFF;" vertex="1" parent="1">
                    <mxGeometry x="31.25" y="2350" width="147.5" height="80" as="geometry"/>
                </mxCell>
                <mxCell id="168" value="&lt;div style=&quot;background-color: rgb(31, 31, 31); font-family: Consolas, &amp;quot;Courier New&amp;quot;, monospace; font-size: 14px; line-height: 19px;&quot;&gt;&lt;div style=&quot;line-height: 19px;&quot;&gt;&lt;font color=&quot;#ffffff&quot;&gt;querySelectorAll&lt;/font&gt;&lt;/div&gt;&lt;/div&gt;" style="ellipse;whiteSpace=wrap;html=1;strokeColor=#FFFFFF;" vertex="1" parent="1">
                    <mxGeometry x="35" y="2450" width="147.5" height="80" as="geometry"/>
                </mxCell>
                <mxCell id="169" value="&lt;div style=&quot;background-color: rgb(31, 31, 31); font-family: Consolas, &amp;quot;Courier New&amp;quot;, monospace; font-size: 14px; line-height: 19px;&quot;&gt;&lt;div style=&quot;line-height: 19px;&quot;&gt;&lt;div style=&quot;line-height: 19px;&quot;&gt;&lt;font color=&quot;#ffffff&quot;&gt;HTML collection&lt;/font&gt;&lt;/div&gt;&lt;/div&gt;&lt;/div&gt;" style="ellipse;whiteSpace=wrap;html=1;strokeColor=#FFFFFF;" vertex="1" parent="1">
                    <mxGeometry x="202.5" y="2510" width="147.5" height="80" as="geometry"/>
                </mxCell>
                <mxCell id="170" value="forms" style="ellipse;whiteSpace=wrap;html=1;strokeColor=#FFFFFF;fontSize=14;fontColor=#FFFFFF;" vertex="1" parent="1">
                    <mxGeometry x="45" y="2590" width="120" height="80" as="geometry"/>
                </mxCell>
                <mxCell id="171" value="anchors" style="ellipse;whiteSpace=wrap;html=1;strokeColor=#FFFFFF;fontSize=14;fontColor=#FFFFFF;" vertex="1" parent="1">
                    <mxGeometry x="160" y="2690" width="120" height="80" as="geometry"/>
                </mxCell>
                <mxCell id="172" value="links" style="ellipse;whiteSpace=wrap;html=1;strokeColor=#FFFFFF;fontSize=14;fontColor=#FFFFFF;" vertex="1" parent="1">
                    <mxGeometry x="330" y="2690" width="120" height="80" as="geometry"/>
                </mxCell>
                <mxCell id="173" value="" style="endArrow=none;html=1;strokeWidth=1;fontSize=14;fontColor=#FFFFFF;entryX=0.617;entryY=0.992;entryDx=0;entryDy=0;entryPerimeter=0;exitX=0;exitY=0.5;exitDx=0;exitDy=0;" edge="1" parent="1" source="160" target="164">
                    <mxGeometry width="50" height="50" relative="1" as="geometry">
                        <mxPoint x="340" y="2330" as="sourcePoint"/>
                        <mxPoint x="370" y="2240" as="targetPoint"/>
                    </mxGeometry>
                </mxCell>
                <mxCell id="174" value="" style="endArrow=none;html=1;strokeWidth=1;fontSize=14;fontColor=#FFFFFF;entryX=0.963;entryY=0.717;entryDx=0;entryDy=0;entryPerimeter=0;exitX=0;exitY=0.5;exitDx=0;exitDy=0;" edge="1" parent="1" source="160" target="165">
                    <mxGeometry width="50" height="50" relative="1" as="geometry">
                        <mxPoint x="388.3389922764452" y="2302.094528199055" as="sourcePoint"/>
                        <mxPoint x="336.00749999999994" y="2199.36" as="targetPoint"/>
                    </mxGeometry>
                </mxCell>
                <mxCell id="175" value="" style="endArrow=none;html=1;strokeWidth=1;fontSize=14;fontColor=#FFFFFF;entryX=1;entryY=0.5;entryDx=0;entryDy=0;exitX=0;exitY=0.5;exitDx=0;exitDy=0;" edge="1" parent="1" source="160" target="166">
                    <mxGeometry width="50" height="50" relative="1" as="geometry">
                        <mxPoint x="350" y="2350" as="sourcePoint"/>
                        <mxPoint x="237.64625" y="2237.36" as="targetPoint"/>
                    </mxGeometry>
                </mxCell>
                <mxCell id="176" value="" style="endArrow=none;html=1;strokeWidth=1;fontSize=14;fontColor=#FFFFFF;entryX=1;entryY=0.5;entryDx=0;entryDy=0;exitX=0;exitY=0.5;exitDx=0;exitDy=0;" edge="1" parent="1" source="160" target="167">
                    <mxGeometry width="50" height="50" relative="1" as="geometry">
                        <mxPoint x="392.5" y="2370" as="sourcePoint"/>
                        <mxPoint x="215" y="2330" as="targetPoint"/>
                    </mxGeometry>
                </mxCell>
                <mxCell id="177" value="" style="endArrow=none;html=1;strokeWidth=1;fontSize=14;fontColor=#FFFFFF;entryX=1.002;entryY=0.404;entryDx=0;entryDy=0;exitX=0;exitY=0.5;exitDx=0;exitDy=0;entryPerimeter=0;" edge="1" parent="1" source="160" target="168">
                    <mxGeometry width="50" height="50" relative="1" as="geometry">
                        <mxPoint x="392.5" y="2370" as="sourcePoint"/>
                        <mxPoint x="198.75" y="2440" as="targetPoint"/>
                    </mxGeometry>
                </mxCell>
                <mxCell id="178" value="" style="endArrow=none;html=1;strokeWidth=1;fontSize=14;fontColor=#FFFFFF;entryX=0.5;entryY=0;entryDx=0;entryDy=0;exitX=0;exitY=0.5;exitDx=0;exitDy=0;" edge="1" parent="1" source="160" target="169">
                    <mxGeometry width="50" height="50" relative="1" as="geometry">
                        <mxPoint x="400" y="2360" as="sourcePoint"/>
                        <mxPoint x="225.29499999999996" y="2542.32" as="targetPoint"/>
                    </mxGeometry>
                </mxCell>
                <mxCell id="179" value="" style="endArrow=none;html=1;strokeWidth=1;fontSize=14;fontColor=#FFFFFF;exitX=0.917;exitY=0.221;exitDx=0;exitDy=0;exitPerimeter=0;entryX=0.5;entryY=1;entryDx=0;entryDy=0;" edge="1" parent="1" source="170" target="169">
                    <mxGeometry width="50" height="50" relative="1" as="geometry">
                        <mxPoint x="220" y="2660" as="sourcePoint"/>
                        <mxPoint x="270" y="2610" as="targetPoint"/>
                    </mxGeometry>
                </mxCell>
                <mxCell id="180" value="" style="endArrow=none;html=1;strokeWidth=1;fontSize=14;fontColor=#FFFFFF;exitX=0.625;exitY=0;exitDx=0;exitDy=0;exitPerimeter=0;entryX=0.5;entryY=1;entryDx=0;entryDy=0;" edge="1" parent="1" source="171" target="169">
                    <mxGeometry width="50" height="50" relative="1" as="geometry">
                        <mxPoint x="214" y="2648.96" as="sourcePoint"/>
                        <mxPoint x="347.5" y="2640" as="targetPoint"/>
                    </mxGeometry>
                </mxCell>
                <mxCell id="181" value="" style="endArrow=none;html=1;strokeWidth=1;fontSize=14;fontColor=#FFFFFF;exitX=0.421;exitY=-0.004;exitDx=0;exitDy=0;exitPerimeter=0;entryX=0.5;entryY=1;entryDx=0;entryDy=0;" edge="1" parent="1" source="172" target="169">
                    <mxGeometry width="50" height="50" relative="1" as="geometry">
                        <mxPoint x="290" y="2700" as="sourcePoint"/>
                        <mxPoint x="347.5" y="2640" as="targetPoint"/>
                    </mxGeometry>
                </mxCell>
                <mxCell id="182" value="&lt;div style=&quot;background-color: rgb(31, 31, 31); font-family: Consolas, &amp;quot;Courier New&amp;quot;, monospace; font-size: 14px; line-height: 19px;&quot;&gt;&lt;div style=&quot;line-height: 19px;&quot;&gt;&lt;div style=&quot;line-height: 19px;&quot;&gt;&lt;div style=&quot;line-height: 19px;&quot;&gt;&lt;font color=&quot;#ffffff&quot;&gt;document.write&lt;/font&gt;&lt;/div&gt;&lt;/div&gt;&lt;/div&gt;&lt;/div&gt;" style="ellipse;whiteSpace=wrap;html=1;strokeColor=#FFFFFF;" vertex="1" parent="1">
                    <mxGeometry x="390" y="2530" width="147.5" height="80" as="geometry"/>
                </mxCell>
                <mxCell id="183" value="" style="endArrow=none;html=1;strokeWidth=1;fontSize=14;fontColor=#FFFFFF;entryX=0.5;entryY=0;entryDx=0;entryDy=0;exitX=0;exitY=0.5;exitDx=0;exitDy=0;" edge="1" parent="1" source="160" target="182">
                    <mxGeometry width="50" height="50" relative="1" as="geometry">
                        <mxPoint x="410" y="2360" as="sourcePoint"/>
                        <mxPoint x="347.5" y="2560" as="targetPoint"/>
                    </mxGeometry>
                </mxCell>
                <mxCell id="184" value="" style="endArrow=none;dashed=1;html=1;dashPattern=1 3;strokeWidth=2;fontSize=14;fontColor=#FFFFFF;exitX=1;exitY=0;exitDx=0;exitDy=0;entryX=0;entryY=0.5;entryDx=0;entryDy=0;" edge="1" parent="1" source="161" target="19">
                    <mxGeometry width="50" height="50" relative="1" as="geometry">
                        <mxPoint x="780" y="2400" as="sourcePoint"/>
                        <mxPoint x="710" y="2460" as="targetPoint"/>
                    </mxGeometry>
                </mxCell>
                <mxCell id="187" value="seter" style="ellipse;whiteSpace=wrap;html=1;strokeColor=#FFFFFF;fontSize=14;fontColor=#FFFFFF;" vertex="1" parent="1">
                    <mxGeometry x="277.5" y="2840" width="120" height="80" as="geometry"/>
                </mxCell>
                <mxCell id="188" value="title" style="ellipse;whiteSpace=wrap;html=1;strokeColor=#FFFFFF;fontSize=14;fontColor=#FFFFFF;" vertex="1" parent="1">
                    <mxGeometry x="48.75" y="2810" width="120" height="80" as="geometry"/>
                </mxCell>
                <mxCell id="189" value="className" style="ellipse;whiteSpace=wrap;html=1;strokeColor=#FFFFFF;fontSize=14;fontColor=#FFFFFF;" vertex="1" parent="1">
                    <mxGeometry x="45" y="2950" width="120" height="80" as="geometry"/>
                </mxCell>
                <mxCell id="190" value="" style="endArrow=none;html=1;strokeWidth=1;fontSize=14;fontColor=#FFFFFF;exitX=1;exitY=0.5;exitDx=0;exitDy=0;entryX=0;entryY=0.5;entryDx=0;entryDy=0;" edge="1" parent="1" source="188" target="187">
                    <mxGeometry width="50" height="50" relative="1" as="geometry">
                        <mxPoint x="440" y="2920" as="sourcePoint"/>
                        <mxPoint x="490" y="2870" as="targetPoint"/>
                    </mxGeometry>
                </mxCell>
                <mxCell id="191" value="" style="endArrow=none;html=1;strokeWidth=1;fontSize=14;fontColor=#FFFFFF;exitX=1;exitY=0;exitDx=0;exitDy=0;entryX=0;entryY=0.5;entryDx=0;entryDy=0;" edge="1" parent="1" source="189" target="187">
                    <mxGeometry width="50" height="50" relative="1" as="geometry">
                        <mxPoint x="420.32000000000016" y="2911.52" as="sourcePoint"/>
                        <mxPoint x="524.0962576081156" y="2884.526169282931" as="targetPoint"/>
                    </mxGeometry>
                </mxCell>
                <mxCell id="192" value="" style="endArrow=none;html=1;strokeWidth=1;fontSize=14;fontColor=#FFFFFF;exitX=1;exitY=1;exitDx=0;exitDy=0;entryX=0;entryY=0;entryDx=0;entryDy=0;" edge="1" parent="1" source="187" target="161">
                    <mxGeometry width="50" height="50" relative="1" as="geometry">
                        <mxPoint x="600" y="2820" as="sourcePoint"/>
                        <mxPoint x="650" y="2770" as="targetPoint"/>
                    </mxGeometry>
                </mxCell>
                <mxCell id="193" value="&lt;div style=&quot;background-color: rgb(31, 31, 31); font-family: Consolas, &amp;quot;Courier New&amp;quot;, monospace; line-height: 19px;&quot;&gt;setAttribute&lt;/div&gt;" style="ellipse;whiteSpace=wrap;html=1;strokeColor=#FFFFFF;fontSize=14;fontColor=#FFFFFF;" vertex="1" parent="1">
                    <mxGeometry x="70" y="3090" width="120" height="80" as="geometry"/>
                </mxCell>
                <mxCell id="194" value="getAttribute" style="ellipse;whiteSpace=wrap;html=1;strokeColor=#FFFFFF;fontSize=14;fontColor=#FFFFFF;" vertex="1" parent="1">
                    <mxGeometry x="168.75" y="3180" width="120" height="80" as="geometry"/>
                </mxCell>
                <mxCell id="195" value="" style="endArrow=none;html=1;strokeWidth=1;fontSize=14;fontColor=#FFFFFF;exitX=0.5;exitY=0;exitDx=0;exitDy=0;entryX=0;entryY=0;entryDx=0;entryDy=0;" edge="1" parent="1" source="193" target="161">
                    <mxGeometry width="50" height="50" relative="1" as="geometry">
                        <mxPoint x="598.676406871193" y="2841.715728752538" as="sourcePoint"/>
                        <mxPoint x="700" y="2800" as="targetPoint"/>
                    </mxGeometry>
                </mxCell>
                <mxCell id="196" value="" style="endArrow=none;html=1;strokeWidth=1;fontSize=14;fontColor=#FFFFFF;exitX=0.5;exitY=0;exitDx=0;exitDy=0;entryX=0;entryY=0;entryDx=0;entryDy=0;" edge="1" parent="1" source="194" target="161">
                    <mxGeometry width="50" height="50" relative="1" as="geometry">
                        <mxPoint x="730" y="2850" as="sourcePoint"/>
                        <mxPoint x="680" y="2780" as="targetPoint"/>
                    </mxGeometry>
                </mxCell>
                <mxCell id="201" value="innerText" style="ellipse;whiteSpace=wrap;html=1;strokeColor=#FFFFFF;fontSize=14;fontColor=#FFFFFF;" vertex="1" parent="1">
                    <mxGeometry x="427.5" y="3180" width="120" height="80" as="geometry"/>
                </mxCell>
                <mxCell id="202" value="textContent" style="ellipse;whiteSpace=wrap;html=1;strokeColor=#FFFFFF;fontSize=14;fontColor=#FFFFFF;" vertex="1" parent="1">
                    <mxGeometry x="660" y="3190" width="120" height="80" as="geometry"/>
                </mxCell>
                <mxCell id="203" value="" style="endArrow=none;html=1;strokeWidth=1;fontSize=14;fontColor=#FFFFFF;exitX=0.737;exitY=0.054;exitDx=0;exitDy=0;exitPerimeter=0;entryX=0.5;entryY=1;entryDx=0;entryDy=0;" edge="1" parent="1" source="201" target="162">
                    <mxGeometry width="50" height="50" relative="1" as="geometry">
                        <mxPoint x="630" y="3180" as="sourcePoint"/>
                        <mxPoint x="680" y="3130" as="targetPoint"/>
                    </mxGeometry>
                </mxCell>
                <mxCell id="204" value="" style="endArrow=none;html=1;strokeWidth=1;fontSize=14;fontColor=#FFFFFF;exitX=0.5;exitY=0;exitDx=0;exitDy=0;entryX=0.5;entryY=1;entryDx=0;entryDy=0;" edge="1" parent="1" source="202" target="162">
                    <mxGeometry width="50" height="50" relative="1" as="geometry">
                        <mxPoint x="653.44" y="3194.32" as="sourcePoint"/>
                        <mxPoint x="740" y="3140" as="targetPoint"/>
                    </mxGeometry>
                </mxCell>
                <mxCell id="205" value="" style="endArrow=none;dashed=1;html=1;dashPattern=1 3;strokeWidth=2;fontSize=14;fontColor=#FFFFFF;exitX=0.5;exitY=0;exitDx=0;exitDy=0;entryX=0;entryY=0.5;entryDx=0;entryDy=0;" edge="1" parent="1" source="162" target="19">
                    <mxGeometry width="50" height="50" relative="1" as="geometry">
                        <mxPoint x="487.5" y="3050" as="sourcePoint"/>
                        <mxPoint x="800" y="2640" as="targetPoint"/>
                    </mxGeometry>
                </mxCell>
                <mxCell id="206" value="outerHTML" style="ellipse;whiteSpace=wrap;html=1;strokeColor=#FFFFFF;fontSize=14;fontColor=#FFFFFF;" vertex="1" parent="1">
                    <mxGeometry x="750" y="2210" width="120" height="80" as="geometry"/>
                </mxCell>
                <mxCell id="207" value="innerHTML" style="ellipse;whiteSpace=wrap;html=1;strokeColor=#FFFFFF;fontSize=14;fontColor=#FFFFFF;" vertex="1" parent="1">
                    <mxGeometry x="590" y="2250" width="120" height="80" as="geometry"/>
                </mxCell>
                <mxCell id="208" value="" style="endArrow=none;dashed=1;html=1;dashPattern=1 3;strokeWidth=2;exitX=0.779;exitY=0.971;exitDx=0;exitDy=0;entryX=0;entryY=0;entryDx=0;entryDy=0;exitPerimeter=0;" edge="1" parent="1" source="207" target="19">
                    <mxGeometry width="50" height="50" relative="1" as="geometry">
                        <mxPoint x="550" y="2360" as="sourcePoint"/>
                        <mxPoint x="869.9999999999998" y="2535" as="targetPoint"/>
                    </mxGeometry>
                </mxCell>
                <mxCell id="209" value="" style="endArrow=none;dashed=1;html=1;dashPattern=1 3;strokeWidth=2;exitX=0.5;exitY=1;exitDx=0;exitDy=0;entryX=0;entryY=0;entryDx=0;entryDy=0;" edge="1" parent="1" source="206" target="19">
                    <mxGeometry width="50" height="50" relative="1" as="geometry">
                        <mxPoint x="713.48" y="2337.6800000000003" as="sourcePoint"/>
                        <mxPoint x="860" y="2540" as="targetPoint"/>
                    </mxGeometry>
                </mxCell>
                <mxCell id="210" value="style&lt;br&gt;(DOM CSS)" style="ellipse;whiteSpace=wrap;html=1;strokeColor=#FFFFFF;fontSize=14;fontColor=#FFFFFF;" vertex="1" parent="1">
                    <mxGeometry x="880" y="2990" width="120" height="80" as="geometry"/>
                </mxCell>
                <mxCell id="211" value="" style="endArrow=none;dashed=1;html=1;dashPattern=1 3;strokeWidth=2;exitX=0.5;exitY=0;exitDx=0;exitDy=0;entryX=0;entryY=1;entryDx=0;entryDy=0;" edge="1" parent="1" source="210" target="19">
                    <mxGeometry width="50" height="50" relative="1" as="geometry">
                        <mxPoint x="550" y="2360" as="sourcePoint"/>
                        <mxPoint x="890" y="2535" as="targetPoint"/>
                    </mxGeometry>
                </mxCell>
                <mxCell id="212" value="Object.assign()" style="ellipse;whiteSpace=wrap;html=1;strokeColor=#FFFFFF;fontSize=14;fontColor=#FFFFFF;" vertex="1" parent="1">
                    <mxGeometry x="1140" y="3180" width="120" height="80" as="geometry"/>
                </mxCell>
                <mxCell id="213" value="style.width" style="ellipse;whiteSpace=wrap;html=1;strokeColor=#FFFFFF;fontSize=14;fontColor=#FFFFFF;" vertex="1" parent="1">
                    <mxGeometry x="830" y="3180" width="120" height="80" as="geometry"/>
                </mxCell>
                <mxCell id="214" value="style.height" style="ellipse;whiteSpace=wrap;html=1;strokeColor=#FFFFFF;fontSize=14;fontColor=#FFFFFF;" vertex="1" parent="1">
                    <mxGeometry x="990" y="3190" width="120" height="80" as="geometry"/>
                </mxCell>
                <mxCell id="215" value="" style="endArrow=none;html=1;strokeWidth=1;fontSize=14;fontColor=#FFFFFF;entryX=0.5;entryY=1;entryDx=0;entryDy=0;" edge="1" parent="1" source="213" target="210">
                    <mxGeometry width="50" height="50" relative="1" as="geometry">
                        <mxPoint x="980" y="3180" as="sourcePoint"/>
                        <mxPoint x="1030" y="3130" as="targetPoint"/>
                    </mxGeometry>
                </mxCell>
                <mxCell id="216" value="" style="endArrow=none;html=1;strokeWidth=1;fontSize=14;fontColor=#FFFFFF;entryX=0.5;entryY=1;entryDx=0;entryDy=0;exitX=0.5;exitY=0;exitDx=0;exitDy=0;" edge="1" parent="1" source="214" target="210">
                    <mxGeometry width="50" height="50" relative="1" as="geometry">
                        <mxPoint x="1045.7136530375442" y="3187.8577122662105" as="sourcePoint"/>
                        <mxPoint x="1110" y="3130" as="targetPoint"/>
                    </mxGeometry>
                </mxCell>
                <mxCell id="217" value="" style="endArrow=none;html=1;strokeWidth=1;fontSize=14;fontColor=#FFFFFF;entryX=0.5;entryY=1;entryDx=0;entryDy=0;exitX=0.5;exitY=0;exitDx=0;exitDy=0;" edge="1" parent="1" source="212" target="210">
                    <mxGeometry width="50" height="50" relative="1" as="geometry">
                        <mxPoint x="1180" y="3180" as="sourcePoint"/>
                        <mxPoint x="1110" y="3130" as="targetPoint"/>
                    </mxGeometry>
                </mxCell>
                <mxCell id="219" value="classList" style="ellipse;whiteSpace=wrap;html=1;strokeColor=#FFFFFF;fontSize=14;fontColor=#FFFFFF;" vertex="1" parent="1">
                    <mxGeometry x="1240" y="2920" width="120" height="80" as="geometry"/>
                </mxCell>
                <mxCell id="221" value="classList.add" style="ellipse;whiteSpace=wrap;html=1;strokeColor=#FFFFFF;fontSize=14;fontColor=#FFFFFF;" vertex="1" parent="1">
                    <mxGeometry x="1170" y="3060" width="120" height="80" as="geometry"/>
                </mxCell>
                <mxCell id="222" value="classList.contains" style="ellipse;whiteSpace=wrap;html=1;strokeColor=#FFFFFF;fontSize=14;fontColor=#FFFFFF;" vertex="1" parent="1">
                    <mxGeometry x="1320" y="3160" width="130" height="80" as="geometry"/>
                </mxCell>
                <mxCell id="223" value="classList.remove" style="ellipse;whiteSpace=wrap;html=1;strokeColor=#FFFFFF;fontSize=14;fontColor=#FFFFFF;" vertex="1" parent="1">
                    <mxGeometry x="1490" y="3160" width="120" height="80" as="geometry"/>
                </mxCell>
                <mxCell id="227" value="classList.toggle" style="ellipse;whiteSpace=wrap;html=1;strokeColor=#FFFFFF;fontSize=14;fontColor=#FFFFFF;" vertex="1" parent="1">
                    <mxGeometry x="1660" y="3150" width="120" height="80" as="geometry"/>
                </mxCell>
                <mxCell id="228" value="" style="endArrow=none;html=1;strokeWidth=1;fontSize=14;fontColor=#FFFFFF;exitX=0.677;exitY=0.028;exitDx=0;exitDy=0;exitPerimeter=0;entryX=0.5;entryY=1;entryDx=0;entryDy=0;" edge="1" parent="1" source="221" target="219">
                    <mxGeometry width="50" height="50" relative="1" as="geometry">
                        <mxPoint x="1440" y="3170" as="sourcePoint"/>
                        <mxPoint x="1490" y="3120" as="targetPoint"/>
                    </mxGeometry>
                </mxCell>
                <mxCell id="229" value="" style="endArrow=none;html=1;strokeWidth=1;fontSize=14;fontColor=#FFFFFF;exitX=0.706;exitY=0.034;exitDx=0;exitDy=0;exitPerimeter=0;entryX=0.5;entryY=1;entryDx=0;entryDy=0;" edge="1" parent="1" source="222" target="219">
                    <mxGeometry width="50" height="50" relative="1" as="geometry">
                        <mxPoint x="1401.24" y="3192.2400000000002" as="sourcePoint"/>
                        <mxPoint x="1600" y="3130" as="targetPoint"/>
                    </mxGeometry>
                </mxCell>
                <mxCell id="230" value="" style="endArrow=none;html=1;strokeWidth=1;fontSize=14;fontColor=#FFFFFF;exitX=0.5;exitY=0;exitDx=0;exitDy=0;entryX=0.5;entryY=1;entryDx=0;entryDy=0;" edge="1" parent="1" source="223" target="219">
                    <mxGeometry width="50" height="50" relative="1" as="geometry">
                        <mxPoint x="1551.7799999999997" y="3192.72" as="sourcePoint"/>
                        <mxPoint x="1600" y="3130" as="targetPoint"/>
                    </mxGeometry>
                </mxCell>
                <mxCell id="231" value="" style="endArrow=none;html=1;strokeWidth=1;fontSize=14;fontColor=#FFFFFF;exitX=0.5;exitY=0;exitDx=0;exitDy=0;entryX=0.5;entryY=1;entryDx=0;entryDy=0;" edge="1" parent="1" source="227" target="219">
                    <mxGeometry width="50" height="50" relative="1" as="geometry">
                        <mxPoint x="1670" y="3190" as="sourcePoint"/>
                        <mxPoint x="1590" y="3120" as="targetPoint"/>
                    </mxGeometry>
                </mxCell>
                <mxCell id="232" value="" style="endArrow=none;dashed=1;html=1;dashPattern=1 3;strokeWidth=2;fontSize=14;fontColor=#FFFFFF;exitX=1;exitY=1;exitDx=0;exitDy=0;entryX=0;entryY=0;entryDx=0;entryDy=0;" edge="1" parent="1" source="19" target="219">
                    <mxGeometry width="50" height="50" relative="1" as="geometry">
                        <mxPoint x="1740" y="3260" as="sourcePoint"/>
                        <mxPoint x="1890" y="2940" as="targetPoint"/>
                    </mxGeometry>
                </mxCell>
                <mxCell id="234" value="DOM events" style="ellipse;whiteSpace=wrap;html=1;strokeColor=#FFFFFF;fontSize=14;fontColor=#FFFFFF;" vertex="1" parent="1">
                    <mxGeometry x="1030" y="2410" width="120" height="80" as="geometry"/>
                </mxCell>
                <mxCell id="235" value="onclick" style="ellipse;whiteSpace=wrap;html=1;strokeColor=#FFFFFF;fontSize=14;fontColor=#FFFFFF;" vertex="1" parent="1">
                    <mxGeometry x="1090" y="2230" width="120" height="80" as="geometry"/>
                </mxCell>
                <mxCell id="236" value="oninput" style="ellipse;whiteSpace=wrap;html=1;strokeColor=#FFFFFF;fontSize=14;fontColor=#FFFFFF;" vertex="1" parent="1">
                    <mxGeometry x="1240" y="2250" width="120" height="80" as="geometry"/>
                </mxCell>
                <mxCell id="237" value="onchange" style="ellipse;whiteSpace=wrap;html=1;strokeColor=#FFFFFF;fontSize=14;fontColor=#FFFFFF;" vertex="1" parent="1">
                    <mxGeometry x="1350" y="2340" width="120" height="80" as="geometry"/>
                </mxCell>
                <mxCell id="239" value="&lt;div style=&quot;background-color: rgb(31, 31, 31); font-family: Consolas, &amp;quot;Courier New&amp;quot;, monospace; line-height: 19px;&quot;&gt;preventDefault&lt;font color=&quot;#cccccc&quot;&gt;()&lt;/font&gt;&lt;/div&gt;" style="ellipse;whiteSpace=wrap;html=1;strokeColor=#FFFFFF;fontSize=14;fontColor=#FFFFFF;" vertex="1" parent="1">
                    <mxGeometry x="1340" y="2450" width="165" height="80" as="geometry"/>
                </mxCell>
                <mxCell id="240" value="&lt;div style=&quot;background-color: rgb(31, 31, 31); font-family: Consolas, &amp;quot;Courier New&amp;quot;, monospace; line-height: 19px;&quot;&gt;stopPropagation&lt;font color=&quot;#cccccc&quot;&gt;()&lt;/font&gt;&lt;/div&gt;" style="ellipse;whiteSpace=wrap;html=1;strokeColor=#FFFFFF;fontSize=14;fontColor=#FFFFFF;" vertex="1" parent="1">
                    <mxGeometry x="1210" y="2530" width="150" height="80" as="geometry"/>
                </mxCell>
                <mxCell id="241" value="" style="endArrow=none;dashed=1;html=1;dashPattern=1 3;strokeWidth=2;fontSize=14;fontColor=#FFFFFF;exitX=1;exitY=0;exitDx=0;exitDy=0;" edge="1" parent="1" source="19" target="234">
                    <mxGeometry width="50" height="50" relative="1" as="geometry">
                        <mxPoint x="1080" y="2660" as="sourcePoint"/>
                        <mxPoint x="1130" y="2610" as="targetPoint"/>
                    </mxGeometry>
                </mxCell>
                <mxCell id="242" value="" style="endArrow=none;html=1;strokeWidth=1;fontSize=14;fontColor=#FFFFFF;entryX=0.5;entryY=1;entryDx=0;entryDy=0;exitX=1;exitY=0.5;exitDx=0;exitDy=0;" edge="1" parent="1" source="234" target="235">
                    <mxGeometry width="50" height="50" relative="1" as="geometry">
                        <mxPoint x="1140" y="2520" as="sourcePoint"/>
                        <mxPoint x="1190" y="2470" as="targetPoint"/>
                    </mxGeometry>
                </mxCell>
                <mxCell id="243" value="" style="endArrow=none;html=1;strokeWidth=1;fontSize=14;fontColor=#FFFFFF;entryX=0;entryY=1;entryDx=0;entryDy=0;exitX=1;exitY=0.5;exitDx=0;exitDy=0;" edge="1" parent="1" source="234" target="236">
                    <mxGeometry width="50" height="50" relative="1" as="geometry">
                        <mxPoint x="1260" y="2660" as="sourcePoint"/>
                        <mxPoint x="1310" y="2610" as="targetPoint"/>
                    </mxGeometry>
                </mxCell>
                <mxCell id="244" value="" style="endArrow=none;html=1;strokeWidth=1;fontSize=14;fontColor=#FFFFFF;exitX=1;exitY=0.5;exitDx=0;exitDy=0;entryX=0.044;entryY=0.696;entryDx=0;entryDy=0;entryPerimeter=0;" edge="1" parent="1" source="234" target="237">
                    <mxGeometry width="50" height="50" relative="1" as="geometry">
                        <mxPoint x="1292.4264068711846" y="2501.7157287525442" as="sourcePoint"/>
                        <mxPoint x="1360" y="2380" as="targetPoint"/>
                    </mxGeometry>
                </mxCell>
                <mxCell id="245" value="" style="endArrow=none;html=1;strokeWidth=1;fontSize=14;fontColor=#FFFFFF;exitX=1;exitY=0.5;exitDx=0;exitDy=0;" edge="1" parent="1" source="234" target="239">
                    <mxGeometry width="50" height="50" relative="1" as="geometry">
                        <mxPoint x="1160.0000000000002" y="2460" as="sourcePoint"/>
                        <mxPoint x="1365.2800000000002" y="2405.68" as="targetPoint"/>
                    </mxGeometry>
                </mxCell>
                <mxCell id="246" value="" style="endArrow=none;html=1;strokeWidth=1;fontSize=14;fontColor=#FFFFFF;exitX=1;exitY=0.5;exitDx=0;exitDy=0;entryX=0.5;entryY=0;entryDx=0;entryDy=0;" edge="1" parent="1" source="234" target="240">
                    <mxGeometry width="50" height="50" relative="1" as="geometry">
                        <mxPoint x="1160.0000000000002" y="2460" as="sourcePoint"/>
                        <mxPoint x="1353.5393966020113" y="2488.4094527122215" as="targetPoint"/>
                    </mxGeometry>
                </mxCell>
                <mxCell id="248" value="Event listener&amp;nbsp;" style="ellipse;whiteSpace=wrap;html=1;strokeColor=#FFFFFF;fontSize=14;fontColor=#FFFFFF;" vertex="1" parent="1">
                    <mxGeometry x="1160" y="2660" width="120" height="80" as="geometry"/>
                </mxCell>
                <mxCell id="249" value="" style="endArrow=classic;startArrow=classic;html=1;strokeWidth=1;fontSize=14;fontColor=#FFFFFF;entryX=0.755;entryY=0.962;entryDx=0;entryDy=0;entryPerimeter=0;" edge="1" parent="1" source="248" target="234">
                    <mxGeometry width="50" height="50" relative="1" as="geometry">
                        <mxPoint x="1120" y="2610" as="sourcePoint"/>
                        <mxPoint x="1170" y="2560" as="targetPoint"/>
                    </mxGeometry>
                </mxCell>
                <mxCell id="250" value="&lt;div style=&quot;background-color: rgb(31, 31, 31); font-family: Consolas, &amp;quot;Courier New&amp;quot;, monospace; line-height: 19px;&quot;&gt;addEventListener&lt;/div&gt;" style="ellipse;whiteSpace=wrap;html=1;strokeColor=#FFFFFF;fontSize=14;fontColor=#FFFFFF;" vertex="1" parent="1">
                    <mxGeometry x="1360" y="2670" width="160" height="80" as="geometry"/>
                </mxCell>
                <mxCell id="251" value="&lt;div style=&quot;background-color: rgb(31, 31, 31); font-family: Consolas, &amp;quot;Courier New&amp;quot;, monospace; line-height: 19px;&quot;&gt;&lt;div style=&quot;line-height: 19px;&quot;&gt;removeEventListener&lt;/div&gt;&lt;/div&gt;" style="ellipse;whiteSpace=wrap;html=1;strokeColor=#FFFFFF;fontSize=14;fontColor=#FFFFFF;" vertex="1" parent="1">
                    <mxGeometry x="1290" y="2790" width="190" height="80" as="geometry"/>
                </mxCell>
                <mxCell id="252" value="" style="endArrow=none;html=1;strokeWidth=1;fontSize=14;fontColor=#FFFFFF;entryX=0;entryY=0.5;entryDx=0;entryDy=0;exitX=1;exitY=0.5;exitDx=0;exitDy=0;" edge="1" parent="1" source="248" target="250">
                    <mxGeometry width="50" height="50" relative="1" as="geometry">
                        <mxPoint x="1300" y="2740" as="sourcePoint"/>
                        <mxPoint x="1350" y="2690" as="targetPoint"/>
                    </mxGeometry>
                </mxCell>
                <mxCell id="253" value="" style="endArrow=none;html=1;strokeWidth=1;fontSize=14;fontColor=#FFFFFF;entryX=1;entryY=0.5;entryDx=0;entryDy=0;exitX=0.306;exitY=0.024;exitDx=0;exitDy=0;exitPerimeter=0;" edge="1" parent="1" source="251" target="248">
                    <mxGeometry width="50" height="50" relative="1" as="geometry">
                        <mxPoint x="1260" y="2790" as="sourcePoint"/>
                        <mxPoint x="1310" y="2740" as="targetPoint"/>
                    </mxGeometry>
                </mxCell>
                <mxCell id="256" value="&lt;div style=&quot;background-color: rgb(31, 31, 31); font-family: Consolas, &amp;quot;Courier New&amp;quot;, monospace; line-height: 19px;&quot;&gt;JSON.parse&lt;/div&gt;" style="ellipse;whiteSpace=wrap;html=1;strokeColor=#FFFFFF;fontSize=14;fontColor=#FFFFFF;" vertex="1" parent="1">
                    <mxGeometry x="647.5" y="2020" width="120" height="80" as="geometry"/>
                </mxCell>
                <mxCell id="257" value="&lt;div style=&quot;background-color: rgb(31, 31, 31); font-family: Consolas, &amp;quot;Courier New&amp;quot;, monospace; line-height: 19px;&quot;&gt;JSON.stringify&lt;/div&gt;" style="ellipse;whiteSpace=wrap;html=1;strokeColor=#FFFFFF;fontSize=14;fontColor=#FFFFFF;" vertex="1" parent="1">
                    <mxGeometry x="845" y="2060" width="130" height="80" as="geometry"/>
                </mxCell>
                <mxCell id="258" value="" style="endArrow=none;dashed=1;html=1;dashPattern=1 3;strokeWidth=2;fontSize=14;fontColor=#FFFFFF;entryX=0.5;entryY=1;entryDx=0;entryDy=0;exitX=1;exitY=0;exitDx=0;exitDy=0;" edge="1" parent="1" source="256" target="21">
                    <mxGeometry width="50" height="50" relative="1" as="geometry">
                        <mxPoint x="1210" y="2080" as="sourcePoint"/>
                        <mxPoint x="1260" y="2030" as="targetPoint"/>
                    </mxGeometry>
                </mxCell>
                <mxCell id="259" value="" style="endArrow=none;dashed=1;html=1;dashPattern=1 3;strokeWidth=2;fontSize=14;fontColor=#FFFFFF;entryX=0.5;entryY=1;entryDx=0;entryDy=0;exitX=0.454;exitY=-0.035;exitDx=0;exitDy=0;exitPerimeter=0;" edge="1" parent="1" source="257" target="21">
                    <mxGeometry width="50" height="50" relative="1" as="geometry">
                        <mxPoint x="1202.4264068711927" y="2091.7157287525383" as="sourcePoint"/>
                        <mxPoint x="1270" y="2050" as="targetPoint"/>
                    </mxGeometry>
                </mxCell>
                <mxCell id="261" value="&lt;font style=&quot;font-size: 20px;&quot;&gt;promise&lt;/font&gt;" style="rhombus;whiteSpace=wrap;html=1;fontSize=14;" vertex="1" parent="1">
                    <mxGeometry x="1820" y="2755" width="190" height="150" as="geometry"/>
                </mxCell>
                <mxCell id="264" value="" style="endArrow=none;dashed=1;html=1;dashPattern=1 3;strokeWidth=2;fontSize=14;fontColor=#FFFFFF;entryX=0.5;entryY=1;entryDx=0;entryDy=0;exitX=0;exitY=0;exitDx=0;exitDy=0;" edge="1" parent="1" source="261" target="2">
                    <mxGeometry width="50" height="50" relative="1" as="geometry">
                        <mxPoint x="1640" y="2350" as="sourcePoint"/>
                        <mxPoint x="1690" y="2300" as="targetPoint"/>
                    </mxGeometry>
                </mxCell>
            </root>
        </mxGraphModel>
    </diagram>
</mxfile>